<?xml version="1.0" encoding="utf-8" standalone="yes"?><svg xmlns="http://www.w3.org/2000/svg" xmlns:xlink="http://www.w3.org/1999/xlink" version="1.1" id="Layer_1" x="0px" y="0px" viewBox="0 0 122.88 106.16" style="enable-background:new 0 0 122.88 106.16;zoom: 1;" xml:space="preserve"><style type="text/css"><![CDATA[.st0{fill-rule:evenodd;clip-rule:evenodd;fill:red;}]]></style><g><path class="st0" d="M4.03,61.749237 h27.36 c2.21,0 4.02,-1.81 4.02,-4.02 V4.219236 C35.41,1.999236 33.599998,0.189236 31.389999,0.189236 H4.03 C1.81,0.189236 0,1.999236 0,4.219236 v53.51 C0,59.939236 1.81,61.749237 4.03,61.749237 L4.03,61.749237 M63.060001,101.889236 c2.12,10.75 19.72,0.85 20.88,-16.48 c0.35,-5.3 -0.2,-11.47 -1.5,-18.36 l25.15,0 c10.46,-0.41 19.59,-7.9 13.14,-20.2 c1.47,-5.36 1.69,-11.65 -2.3,-14.13 c0.5,-8.46 -1.84,-13.7 -6.22,-17.84 c-0.29,-4.23 -1.19,-7.99 -3.23,-10.88 c-3.38,-4.77 -6.12,-3.63 -11.44,-3.63 H55.07 c-6.73,0 -10.4,1.85 -14.8,7.37 v47.31 c12.66,3.42 19.39,20.74 22.79,32.11 V101.889236 L63.060001,101.889236 L63.060001,101.889236 "></path></g></svg>